<?xml version="1.0" encoding="UTF-8"?>
<!DOCTYPE svg PUBLIC "-//W3C//DTD SVG 1.1//EN" "http://www.w3.org/Graphics/SVG/1.1/DTD/svg11.dtd">
<svg xmlns="http://www.w3.org/2000/svg" version="1.1" width="420px" height="420px" style="shape-rendering:geometricPrecision; text-rendering:geometricPrecision; image-rendering:optimizeQuality; fill-rule:evenodd; clip-rule:evenodd" xmlns:xlink="http://www.w3.org/1999/xlink">
<g><path style="opacity:1" fill="#c36b6b" d="M 13.5,-0.5 C 63.1667,-0.5 112.833,-0.5 162.5,-0.5C 164.167,1.5 165.833,3.5 167.5,5.5C 116.331,5.16777 65.3306,5.50111 14.5,6.5C 11.0078,7.40975 8.0078,9.07642 5.5,11.5C 2.74361,14.0177 0.743612,17.0177 -0.5,20.5C -0.5,17.8333 -0.5,15.1667 -0.5,12.5C 2.25553,6.07676 6.9222,1.74343 13.5,-0.5 Z"/></g>
<g><path style="opacity:1" fill="#cb7979" d="M 162.5,-0.5 C 243.5,-0.5 324.5,-0.5 405.5,-0.5C 412.386,1.92973 417.052,6.59639 419.5,13.5C 419.5,15.8333 419.5,18.1667 419.5,20.5C 418.163,17.0093 416.163,13.8426 413.5,11C 410.661,9.07973 407.661,7.41306 404.5,6C 325.501,5.5 246.501,5.33334 167.5,5.5C 165.833,3.5 164.167,1.5 162.5,-0.5 Z"/></g>
<g><path style="opacity:1" fill="#a00f0f" d="M 14.5,6.5 C 40.5,6.5 66.5,6.5 92.5,6.5C 125.833,40.1667 159.167,73.8333 192.5,107.5C 176.796,121.873 160.796,135.873 144.5,149.5C 98.7843,102.784 52.4509,56.7839 5.5,11.5C 8.0078,9.07642 11.0078,7.40975 14.5,6.5 Z"/></g>
<g><path style="opacity:1" fill="#a31615" d="M 92.5,6.5 C 118.167,6.5 143.833,6.5 169.5,6.5C 252.5,90.1667 335.833,173.5 419.5,256.5C 419.5,282.167 419.5,307.833 419.5,333.5C 385.167,299.833 351.167,265.833 317.5,231.5C 319.199,231.66 320.866,231.494 322.5,231C 327.415,226.756 331.581,221.923 335,216.5C 335.678,214.402 335.511,212.402 334.5,210.5C 335.39,208.218 335.556,205.885 335,203.5C 296.797,168.962 258.297,134.795 219.5,101C 212.288,97.3581 205.288,97.6914 198.5,102C 196.63,104.04 194.63,105.873 192.5,107.5C 159.167,73.8333 125.833,40.1667 92.5,6.5 Z"/></g>
<g><path style="opacity:1" fill="#a61a1a" d="M 169.5,6.5 C 188.167,6.5 206.833,6.5 225.5,6.5C 289.833,71.5 354.5,136.167 419.5,200.5C 419.5,219.167 419.5,237.833 419.5,256.5C 335.833,173.5 252.5,90.1667 169.5,6.5 Z"/></g>
<g><path style="opacity:1" fill="#a91e1e" d="M 225.5,6.5 C 232.833,6.5 240.167,6.5 247.5,6.5C 304.5,64.1667 361.833,121.5 419.5,178.5C 419.5,185.833 419.5,193.167 419.5,200.5C 354.5,136.167 289.833,71.5 225.5,6.5 Z"/></g>
<g><path style="opacity:1" fill="#ab2222" d="M 247.5,6.5 C 267.5,6.5 287.5,6.5 307.5,6.5C 344.5,44.1667 381.833,81.5 419.5,118.5C 419.5,138.5 419.5,158.5 419.5,178.5C 361.833,121.5 304.5,64.1667 247.5,6.5 Z"/></g>
<g><path style="opacity:1" fill="#ae2828" d="M 307.5,6.5 C 325.836,6.33339 344.17,6.50006 362.5,7C 381.368,26.035 400.368,44.8684 419.5,63.5C 419.5,81.8333 419.5,100.167 419.5,118.5C 381.833,81.5 344.5,44.1667 307.5,6.5 Z"/></g>
<g><path style="opacity:1" fill="#b22e2e" d="M 14.5,6.5 C 65.3306,5.50111 116.331,5.16777 167.5,5.5C 246.501,5.33334 325.501,5.5 404.5,6C 407.661,7.41306 410.661,9.07973 413.5,11C 416.163,13.8426 418.163,17.0093 419.5,20.5C 419.5,34.8333 419.5,49.1667 419.5,63.5C 400.368,44.8684 381.368,26.035 362.5,7C 344.17,6.50006 325.836,6.33339 307.5,6.5C 287.5,6.5 267.5,6.5 247.5,6.5C 240.167,6.5 232.833,6.5 225.5,6.5C 206.833,6.5 188.167,6.5 169.5,6.5C 143.833,6.5 118.167,6.5 92.5,6.5C 66.5,6.5 40.5,6.5 14.5,6.5 Z"/></g>
<g><path style="opacity:1" fill="#9e0909" d="M 5.5,11.5 C 52.4509,56.7839 98.7843,102.784 144.5,149.5C 124.176,167.158 104.176,185.158 84.5,203.5C 83.8333,203.833 83.1667,204.167 82.5,204.5C 55.5503,175.883 27.8837,147.883 -0.5,120.5C -0.5,87.1667 -0.5,53.8333 -0.5,20.5C 0.743612,17.0177 2.74361,14.0177 5.5,11.5 Z"/></g>
<g><path style="opacity:1" fill="#9e0404" d="M -0.5,120.5 C 27.8837,147.883 55.5503,175.883 82.5,204.5C 55.1667,232.5 27.5,260.167 -0.5,287.5C -0.5,231.833 -0.5,176.167 -0.5,120.5 Z"/></g>
<g><path style="opacity:1" fill="#551312" d="M 322.5,223.5 C 320.5,225.833 318.5,228.167 316.5,230.5C 283.466,203.311 251.133,175.144 219.5,146C 217.545,145.047 215.878,143.713 214.5,142C 210.586,139.82 206.919,140.154 203.5,143C 171.603,171.737 139.603,200.237 107.5,228.5C 104.66,231.143 101.327,231.976 97.5,231C 93.6667,227.167 89.8333,223.333 86,219.5C 84.3643,216.773 84.1976,214.107 85.5,211.5C 89.631,215.13 93.631,218.963 97.5,223C 100.303,223.755 102.97,223.422 105.5,222C 138.021,193.568 170.355,164.902 202.5,136C 205.983,132.308 209.983,131.642 214.5,134C 248.167,163.667 281.833,193.333 315.5,223C 317.81,223.497 320.143,223.663 322.5,223.5 Z"/></g>
<g><path style="opacity:1" fill="#801311" d="M 316.5,230.5 C 316.5,230.833 316.5,231.167 316.5,231.5C 313.233,233.427 310.233,235.761 307.5,238.5C 307.785,236.712 307.452,235.045 306.5,233.5C 274.427,205.049 242.26,176.716 210,148.5C 177.609,177.065 145.109,205.398 112.5,233.5C 111.641,231.894 111.474,230.227 112,228.5C 110.586,227.587 109.086,227.587 107.5,228.5C 139.603,200.237 171.603,171.737 203.5,143C 206.919,140.154 210.586,139.82 214.5,142C 215.878,143.713 217.545,145.047 219.5,146C 251.133,175.144 283.466,203.311 316.5,230.5 Z"/></g>
<g><path style="opacity:1" fill="#c9ccc5" d="M 334.5,210.5 C 330.528,214.807 326.528,219.141 322.5,223.5C 320.143,223.663 317.81,223.497 315.5,223C 281.833,193.333 248.167,163.667 214.5,134C 209.983,131.642 205.983,132.308 202.5,136C 170.355,164.902 138.021,193.568 105.5,222C 102.97,223.422 100.303,223.755 97.5,223C 93.631,218.963 89.631,215.13 85.5,211.5C 84.7347,208.904 84.4013,206.237 84.5,203.5C 104.176,185.158 124.176,167.158 144.5,149.5C 160.796,135.873 176.796,121.873 192.5,107.5C 194.63,105.873 196.63,104.04 198.5,102C 205.288,97.6914 212.288,97.3581 219.5,101C 258.297,134.795 296.797,168.962 335,203.5C 335.556,205.885 335.39,208.218 334.5,210.5 Z"/></g>
<g><path style="opacity:1" fill="#c9ccc5" d="M 307.5,238.5 C 307.5,263.167 307.5,287.833 307.5,312.5C 307.5,314.167 307.5,315.833 307.5,317.5C 305.99,318.836 304.323,320.003 302.5,321C 240.5,321.667 178.5,321.667 116.5,321C 114.65,320.31 113.316,319.144 112.5,317.5C 112.5,289.5 112.5,261.5 112.5,233.5C 145.109,205.398 177.609,177.065 210,148.5C 242.26,176.716 274.427,205.049 306.5,233.5C 307.452,235.045 307.785,236.712 307.5,238.5 Z"/></g>
<g><path style="opacity:1" fill="#7b0202" d="M 84.5,203.5 C 84.4013,206.237 84.7347,208.904 85.5,211.5C 84.1976,214.107 84.3643,216.773 86,219.5C 89.8333,223.333 93.6667,227.167 97.5,231C 101.327,231.976 104.66,231.143 107.5,228.5C 109.086,227.587 110.586,227.587 112,228.5C 111.474,230.227 111.641,231.894 112.5,233.5C 112.5,261.5 112.5,289.5 112.5,317.5C 112.336,320.187 112.503,322.854 113,325.5C 113.5,327.333 114.667,328.5 116.5,329C 147.498,329.5 178.498,329.667 209.5,329.5C 223.5,344.167 237.833,358.5 252.5,372.5C 239.118,386.214 225.785,399.881 212.5,413.5C 212.167,413.5 211.833,413.5 211.5,413.5C 145.832,413.667 80.1658,413.5 14.5,413C 6.95832,410.623 1.95832,405.789 -0.5,398.5C -0.5,361.5 -0.5,324.5 -0.5,287.5C 27.5,260.167 55.1667,232.5 82.5,204.5C 83.1667,204.167 83.8333,203.833 84.5,203.5 Z"/></g>
<g><path style="opacity:1" fill="#5b1d1b" d="M 223.5,218.5 C 214.881,217.392 206.215,217.225 197.5,218C 196.85,224.599 196.184,231.099 195.5,237.5C 195.334,228.827 195.5,220.16 196,211.5C 196.5,211 197,210.5 197.5,210C 205.5,209.333 213.5,209.333 221.5,210C 223.321,212.456 223.988,215.289 223.5,218.5 Z"/></g>
<g><path style="opacity:1" fill="#6c1817" d="M 334.5,210.5 C 335.511,212.402 335.678,214.402 335,216.5C 331.581,221.923 327.415,226.756 322.5,231C 320.866,231.494 319.199,231.66 317.5,231.5C 317.167,231.5 316.833,231.5 316.5,231.5C 316.5,231.167 316.5,230.833 316.5,230.5C 318.5,228.167 320.5,225.833 322.5,223.5C 326.528,219.141 330.528,214.807 334.5,210.5 Z"/></g>
<g><path style="opacity:1" fill="#7d0b0b" d="M 223.5,218.5 C 223.5,224.833 223.5,231.167 223.5,237.5C 223.5,240.167 223.5,242.833 223.5,245.5C 232.886,245.22 242.22,245.553 251.5,246.5C 251.81,252.758 251.476,258.924 250.5,265C 241.506,265.5 232.506,265.666 223.5,265.5C 223.666,274.506 223.5,283.506 223,292.5C 214.579,293.649 206.079,293.816 197.5,293C 197,292.5 196.5,292 196,291.5C 195.5,282.84 195.334,274.173 195.5,265.5C 186.827,265.666 178.16,265.5 169.5,265C 168.524,258.924 168.19,252.758 168.5,246.5C 177.416,245.529 186.416,245.196 195.5,245.5C 195.5,242.833 195.5,240.167 195.5,237.5C 196.184,231.099 196.85,224.599 197.5,218C 206.215,217.225 214.881,217.392 223.5,218.5 Z"/></g>
<g><path style="opacity:1" fill="#a00f0f" d="M 316.5,231.5 C 316.833,231.5 317.167,231.5 317.5,231.5C 351.167,265.833 385.167,299.833 419.5,333.5C 419.5,354.833 419.5,376.167 419.5,397.5C 417.901,404.693 413.568,409.36 406.5,411.5C 373.833,378.167 340.833,345.167 307.5,312.5C 307.5,287.833 307.5,263.167 307.5,238.5C 310.233,235.761 313.233,233.427 316.5,231.5 Z"/></g>
<g><path style="opacity:1" fill="#511010" d="M 195.5,237.5 C 195.5,240.167 195.5,242.833 195.5,245.5C 186.416,245.196 177.416,245.529 168.5,246.5C 168.223,243.552 168.556,240.719 169.5,238C 178.16,237.5 186.827,237.334 195.5,237.5 Z"/></g>
<g><path style="opacity:1" fill="#541312" d="M 223.5,237.5 C 232.173,237.334 240.84,237.5 249.5,238C 251.321,240.456 251.988,243.289 251.5,246.5C 242.22,245.553 232.886,245.22 223.5,245.5C 223.5,242.833 223.5,240.167 223.5,237.5 Z"/></g>
<g><path style="opacity:1" fill="#9e0909" d="M 307.5,312.5 C 340.833,345.167 373.833,378.167 406.5,411.5C 406.082,412.222 405.416,412.722 404.5,413C 340.501,413.5 276.501,413.667 212.5,413.5C 225.785,399.881 239.118,386.214 252.5,372.5C 267.167,358.5 281.5,344.167 295.5,329.5C 304.5,330.5 308.5,326.5 307.5,317.5C 307.5,315.833 307.5,314.167 307.5,312.5 Z"/></g>
<g><path style="opacity:1" fill="#4e0707" d="M 112.5,317.5 C 113.316,319.144 114.65,320.31 116.5,321C 178.5,321.667 240.5,321.667 302.5,321C 304.323,320.003 305.99,318.836 307.5,317.5C 308.5,326.5 304.5,330.5 295.5,329.5C 266.833,329.5 238.167,329.5 209.5,329.5C 178.498,329.667 147.498,329.5 116.5,329C 114.667,328.5 113.5,327.333 113,325.5C 112.503,322.854 112.336,320.187 112.5,317.5 Z"/></g>
<g><path style="opacity:1" fill="#7b0707" d="M 209.5,329.5 C 238.167,329.5 266.833,329.5 295.5,329.5C 281.5,344.167 267.167,358.5 252.5,372.5C 237.833,358.5 223.5,344.167 209.5,329.5 Z"/></g>
<g><path style="opacity:1" fill="#5a1113" d="M -0.5,398.5 C 1.95832,405.789 6.95832,410.623 14.5,413C 80.1658,413.5 145.832,413.667 211.5,413.5C 209.833,415.5 208.167,417.5 206.5,419.5C 142.167,419.5 77.8333,419.5 13.5,419.5C 6.5,417.167 1.83333,412.5 -0.5,405.5C -0.5,403.167 -0.5,400.833 -0.5,398.5 Z"/></g>
<g><path style="opacity:1" fill="#711718" d="M 419.5,397.5 C 419.5,400.167 419.5,402.833 419.5,405.5C 416.833,412.167 412.167,416.833 405.5,419.5C 339.167,419.5 272.833,419.5 206.5,419.5C 208.167,417.5 209.833,415.5 211.5,413.5C 211.833,413.5 212.167,413.5 212.5,413.5C 276.501,413.667 340.501,413.5 404.5,413C 405.416,412.722 406.082,412.222 406.5,411.5C 413.568,409.36 417.901,404.693 419.5,397.5 Z"/></g>
</svg>
